<svg width="88" height="105" viewBox="0 0 88 105" fill="none" xmlns="http://www.w3.org/2000/svg">
<path d="M47.7564 78.8633C44.524 78.7017 40.8992 78.4477 37.2974 78.3785C33.6956 78.3092 30.394 78.8171 26.9308 78.6555C22.4517 78.4477 18.1573 77.6627 14.3477 75.0307C12.0044 73.4503 10.1047 71.2963 8.82963 68.7738C6.63625 64.4563 6.49772 59.9079 7.1211 55.2441C7.62904 51.4576 9.01434 47.9251 10.7229 44.5773C12.3342 41.4675 14.3107 38.5609 16.6104 35.9192C18.3135 33.9236 20.1995 32.0916 22.2439 30.4473C25.8918 27.5613 29.9553 25.5295 34.6423 24.8138C37.967 24.2828 41.2224 24.3751 44.4086 25.4833C47.5948 26.5916 49.9036 28.1385 51.7275 30.7706C52.5125 31.9019 53.413 32.9639 54.7752 33.495C55.1215 33.6335 55.4217 33.5411 55.7449 33.5411C58.4924 33.6335 61.2399 33.6335 63.9874 33.7951C66.7349 33.9567 67.7969 34.9033 68.0509 37.7201C68.2356 39.9597 68.1433 42.1992 67.5199 44.3926C67.3026 45.1853 66.9512 45.9349 66.4809 46.6091C66.1115 47.117 66.1115 47.6019 66.6887 48.0174C66.8276 48.156 66.9375 48.3208 67.0119 48.5023C68.09 50.7895 68.8512 53.213 69.2746 55.7058C69.4924 56.7275 69.6543 57.7603 69.7594 58.7997C69.9672 61.7319 69.2746 64.5255 68.3972 67.2961C67.5199 70.0667 65.973 71.9599 64.0567 73.7377C62.1403 75.5155 60.5011 76.2082 58.4231 77.0394C55.0753 78.4016 51.6583 78.8402 47.7564 78.8633ZM35.9814 74.6151C34.573 73.8994 33.0723 73.4145 31.7101 72.6988C29.1704 71.3366 27.1617 69.4895 26.2843 66.6958C25.6609 64.6641 25.9611 62.9324 27.8312 61.7549C28.6855 61.2239 29.4012 60.6236 29.8168 59.677C30.3619 58.3623 31.1184 57.1456 32.0564 56.0752C33.6264 54.3667 35.4734 53.143 37.5052 52.1272C38.2671 51.7577 39.1445 51.5961 39.4677 50.5802C39.9295 49.0102 40.5298 47.4864 41.0839 45.9626C41.1762 45.6625 41.2917 45.3854 41.4071 45.1083C41.9843 43.9539 42.7924 43.7 43.8545 44.4157C45.0416 45.1664 46.1081 46.0928 47.0175 47.1632C48.3567 48.8025 49.8805 50.3032 50.9887 52.1272C51.1965 52.4966 51.4274 52.5427 51.8199 52.4735C52.9512 52.1964 53.9902 51.7116 55.0753 51.3652C57.2687 50.6264 59.3236 49.5413 61.009 47.9713C62.0259 47.0284 62.8424 45.8903 63.4097 44.6249C63.9769 43.3594 64.2834 41.9926 64.3106 40.6061C64.3337 39.521 64.3799 38.2973 63.2717 37.5123C62.5097 36.9813 61.6555 36.8889 60.7781 36.8428C58.5617 36.7042 56.3452 36.658 54.1518 36.4733C51.9584 36.2886 50.6655 35.5267 49.7189 33.6335C48.9108 32.0866 47.5947 30.9553 46.0709 30.0317C43.9006 28.7619 41.5918 28.1616 39.0752 28.0231C36.0276 27.8383 33.1646 28.4617 30.4171 29.6161C27.6696 30.7706 24.8759 32.8485 22.544 35.065C20.2121 37.2814 18.2958 39.7288 16.518 42.3378C15.5016 43.8625 14.5988 45.4599 13.8167 47.117C12.4083 49.9569 11.6695 53.0276 11.1154 56.1214C10.5612 59.2152 10.8614 62.2167 11.8311 65.1951C12.9624 68.6122 15.2251 71.0364 18.3189 72.7449C20.7662 74.1071 23.3983 74.7536 26.1689 75.0076C29.4474 75.2846 32.7029 74.9152 35.9814 74.6151ZM46.9483 75.7695C48.6799 75.6771 50.4115 75.5617 52.1431 75.3077C55.2915 74.9042 58.2779 73.6778 60.8012 71.7521C60.9167 71.6829 61.0552 71.5444 61.0552 71.4289C61.0552 71.3135 60.8243 71.2442 60.6858 71.198C59.3467 70.7132 58.2846 69.7896 57.3842 68.7969C56.045 67.2961 55.0984 65.4952 54.1518 63.7174C53.2052 61.9397 52.7203 60.3927 51.7968 58.8227C50.6424 56.8372 49.488 54.8516 48.0796 53.0276C46.6712 51.2036 45.4937 50.0261 44.2008 48.5254C43.6005 47.7866 43.4158 47.8327 43.1156 48.7563C42.8155 49.6798 42.6539 50.3724 42.423 51.1805C42.1921 51.9886 41.6149 53.3508 40.4836 53.9049C39.3523 54.4591 38.4749 54.8054 37.5283 55.2902C35.7274 56.2369 34.1343 57.4375 33.2339 59.2845C32.4038 61.0993 31.1533 62.6901 29.5859 63.9252C29.31 64.1186 29.106 64.398 29.0057 64.7196C28.9055 65.0413 28.9146 65.3871 29.0318 65.703C29.8168 68.5429 31.8717 70.0667 34.5037 70.8979C36.7202 71.5905 38.775 72.4448 39.9756 74.6151C40.0767 74.8483 40.2401 75.0493 40.4478 75.1959C40.6555 75.3425 40.8995 75.4291 41.1531 75.4463L46.9483 75.7695Z" fill="#1E8386"/>
<path d="M37.7362 10.846C37.5745 13.709 36.8126 16.4334 34.9425 18.6268C31.9872 22.1131 27.5312 23.6138 23.1213 20.8201C22.1297 20.1897 21.2613 19.3838 20.5585 18.442C17.6956 14.7479 17.2107 10.6151 18.85 6.3669C20.4893 2.11867 24.1603 -0.444119 28.8703 0.0638218C30.7173 0.271616 32.3566 1.05661 33.8342 2.30338C35.3119 3.55014 36.5587 5.67426 37.2513 7.84455C37.5509 8.81781 37.7141 9.82793 37.7362 10.846Z" fill="#FF7816"/>
<path d="M42.9542 12.9958C42.9574 10.1939 43.9096 7.47576 45.6555 5.28435C48.2876 2.02891 52.2818 0.158763 56.6917 1.72876C60.2703 3.0217 62.6023 6.46184 62.6715 10.2945C62.7177 12.6264 62.3714 14.9121 61.1477 16.8977C59.0467 20.3379 56.1376 22.6467 51.9124 22.7852C48.2645 22.9007 44.8012 20.4995 43.7392 17.0132C43.4852 16.2282 43.0465 15.4893 42.9773 14.6813C42.935 14.1204 42.9273 13.5576 42.9542 12.9958Z" fill="#FF7816"/>
<path d="M7.65219 14.8636C9.82192 14.9601 11.8925 15.7997 13.5166 17.2417C15.5484 19.0195 16.4488 21.259 16.8413 23.868C17.2338 26.477 16.5412 28.1393 15.3867 29.9864C14.2323 31.8335 10.9076 33.288 8.46027 32.8955C6.37645 32.5702 4.44938 31.5926 2.95597 30.1034C1.46256 28.6141 0.479663 26.6898 0.148515 24.6068C-0.220897 22.2057 0.0561648 19.8968 1.46455 17.842C2.59587 16.2027 5.13557 14.7713 7.65219 14.8636Z" fill="#FF7816"/>
<path d="M35.9816 74.619C32.7031 74.9192 29.4476 75.2886 26.1691 75.0116C23.3985 74.7576 20.7665 74.1111 18.3191 72.7489C15.2253 71.0404 12.9627 68.6161 11.8313 65.1991C10.8616 62.2207 10.5384 59.173 11.1156 56.1254C11.6928 53.0777 12.4085 49.9608 13.8169 47.121C14.599 45.4638 15.5019 43.8664 16.5182 42.3417C18.296 39.7327 20.2354 37.2392 22.5443 35.0689C24.8531 32.8986 27.439 30.89 30.4174 29.6201C33.3957 28.3502 36.0278 27.8423 39.0754 28.027C41.5921 28.1655 43.9009 28.7658 46.0712 30.0357C47.595 30.9592 48.911 32.0905 49.7191 33.6374C50.6657 35.5307 52.2126 36.3157 54.152 36.4773C56.0915 36.6389 58.5619 36.7082 60.7784 36.8467C61.6557 36.8929 62.51 36.9852 63.2719 37.5163C64.3801 38.3013 64.334 39.5249 64.3109 40.6101C64.2836 41.9966 63.9772 43.3634 63.4099 44.6288C62.8427 45.8942 62.0262 47.0324 61.0093 47.9752C59.3238 49.5452 57.269 50.6304 55.0756 51.3692C53.9904 51.7155 52.9515 52.2004 51.8201 52.4774C51.4276 52.5467 51.1968 52.5005 50.989 52.1311C49.8807 50.3071 48.3569 48.8064 47.0178 47.1671C46.1083 46.0968 45.0418 45.1704 43.8547 44.4197C42.7926 43.7039 41.9846 43.9579 41.4073 45.1123C41.2919 45.3894 41.1765 45.6664 41.0841 45.9666C40.53 47.4904 39.9297 49.0142 39.4679 50.5842C39.1447 51.6001 38.2673 51.7617 37.5054 52.1311C35.4737 53.147 33.6266 54.3707 32.0566 56.0792C31.1186 57.1496 30.3621 58.3662 29.8171 59.681C29.4015 60.6276 28.6857 61.2279 27.8315 61.7589C25.9613 62.9364 25.6612 64.668 26.2846 66.6998C27.1619 69.4935 29.1706 71.3405 31.7103 72.7027C33.0725 73.4185 34.5732 73.9033 35.9816 74.619ZM33.5343 43.6808C33.5343 45.2046 33.5112 46.2898 33.1187 47.3288C32.7262 48.3677 32.426 49.0835 31.5487 49.6145C29.3091 50.9998 27.0234 50.6073 24.7838 49.7299C23.2774 49.1129 21.8994 48.2203 20.7203 47.0979C20.4779 46.8577 20.1553 46.7154 19.8144 46.6984C19.4736 46.6813 19.1384 46.7907 18.8732 47.0055C18.2729 47.4442 18.2729 48.0676 18.5962 48.7371C18.9194 49.4067 19.6121 50.0301 20.2354 50.5842C22.9599 52.9854 26.0768 54.0705 29.6785 53.678C32.4953 53.3779 34.6656 51.9695 35.9123 49.3605C37.5978 45.7819 37.2746 42.1339 35.9585 38.5322C35.566 37.447 35.0581 36.3619 34.0653 35.623C33.5804 35.2767 33.0956 35.0458 32.5184 35.346C32.2546 35.4809 32.042 35.6982 31.9129 35.9649C31.7837 36.2315 31.745 36.533 31.8026 36.8236C31.8599 37.126 31.9529 37.4206 32.0797 37.701C32.9571 39.7558 33.6266 41.8338 33.5343 43.6808ZM45.517 40.3792C46.6484 40.4023 47.6643 39.4788 47.6643 38.4398C47.6643 37.4008 46.7869 36.5235 45.6556 36.4773C45.3899 36.4712 45.1256 36.5178 44.878 36.6146C44.6305 36.7114 44.4046 36.8563 44.2135 37.041C44.0224 37.2256 43.8698 37.4464 43.7646 37.6905C43.6594 37.9346 43.6037 38.1971 43.6007 38.4629C43.6007 38.9711 43.8026 39.4586 44.162 39.8179C44.5214 40.1773 45.0088 40.3792 45.517 40.3792Z" fill="#FF7816"/>
<path d="M46.9483 75.7712L41.1532 75.4479C40.8996 75.4308 40.6555 75.3441 40.4478 75.1975C40.2402 75.0509 40.0768 74.85 39.9757 74.6168C38.7751 72.4465 36.7203 71.5922 34.5038 70.8996C31.8717 70.0684 29.8169 68.5446 29.0319 65.7047C28.9147 65.3888 28.9055 65.043 29.0058 64.7213C29.1061 64.3997 29.3101 64.1203 29.586 63.9269C31.1534 62.6918 32.4039 61.1009 33.2339 59.2862C34.1344 57.4391 35.7275 56.2385 37.5283 55.2919C38.475 54.8071 39.4909 54.3915 40.4836 53.9066C41.4764 53.4218 42.0767 52.2904 42.4231 51.1822C42.7694 50.074 42.8386 49.5429 43.1157 48.7579C43.3928 47.9729 43.6006 47.7882 44.2008 48.5271C45.4938 50.0278 46.8791 51.4593 48.0797 53.0293C49.2803 54.5993 50.6425 56.8388 51.7969 58.8244C52.7204 60.3944 53.3207 62.1029 54.1519 63.7191C54.983 65.3353 56.0451 67.2978 57.3842 68.7985C58.2847 69.7913 59.3467 70.7149 60.6858 71.1997C60.8244 71.2459 61.0783 71.2228 61.0553 71.4306C61.0322 71.6384 60.9167 71.6846 60.8013 71.7538C58.278 73.6795 55.2916 74.9059 52.1432 75.3094C50.4116 75.5634 48.68 75.6788 46.9483 75.7712ZM37.2513 63.4882C38.3364 63.4882 39.0522 62.8418 39.0522 61.8259C39.0616 61.5786 39.0206 61.3321 38.9317 61.1011C38.8428 60.8702 38.7079 60.6598 38.5351 60.4827C38.3623 60.3056 38.1553 60.1655 37.9267 60.071C37.698 59.9764 37.4525 59.9293 37.2051 59.9326C36.7515 59.9473 36.3188 60.1263 35.9874 60.4364C35.6561 60.7465 35.4488 61.1665 35.4042 61.6181C35.3947 61.8643 35.4357 62.1098 35.5249 62.3395C35.614 62.5692 35.7493 62.7782 35.9225 62.9535C36.0956 63.1288 36.3029 63.2667 36.5314 63.3586C36.76 63.4506 37.005 63.4947 37.2513 63.4882Z" fill="#5BBBBD"/>
<path d="M33.5343 43.6766C33.6266 41.8296 32.9571 39.7516 32.0797 37.6968C31.9529 37.4163 31.8599 37.1218 31.8027 36.8194C31.7451 36.5288 31.7838 36.2273 31.9129 35.9606C32.0421 35.694 32.2546 35.4767 32.5184 35.3418C33.0956 35.0416 33.5805 35.2725 34.0653 35.6188C35.0581 36.3577 35.5661 37.4428 35.9586 38.5279C37.2746 42.1297 37.5978 45.7776 35.9124 49.3563C34.6656 51.9653 32.4953 53.3737 29.6786 53.6738C26.0768 54.0663 22.9599 52.9812 20.2355 50.58C19.6121 50.0259 18.9887 49.5179 18.5962 48.7329C18.2037 47.9479 18.273 47.44 18.8733 47.0013C19.1385 46.7865 19.4736 46.6771 19.8145 46.6941C20.1553 46.7112 20.4779 46.8535 20.7203 47.0937C21.8994 48.216 23.2775 49.1087 24.7839 49.7257C27.0234 50.6031 29.3092 50.9956 31.5487 49.6103C32.4261 49.0793 32.7724 48.2019 33.1187 47.3246C33.465 46.4472 33.5343 45.2004 33.5343 43.6766Z" fill="#1E8386"/>
<path d="M45.5169 40.3751C45.0087 40.3751 44.5212 40.1732 44.1619 39.8138C43.8025 39.4544 43.6006 38.967 43.6006 38.4588C43.6036 38.193 43.6593 37.9305 43.7644 37.6864C43.8696 37.4423 44.0222 37.2215 44.2133 37.0369C44.4045 36.8522 44.6303 36.7072 44.8779 36.6105C45.1254 36.5137 45.3897 36.4671 45.6554 36.4732C46.7868 36.5194 47.6641 37.3505 47.6641 38.4357C47.6641 39.5208 46.6482 40.3982 45.5169 40.3751Z" fill="#1E8386"/>
<path d="M37.2515 63.4854C37.0052 63.4919 36.7602 63.4478 36.5316 63.3559C36.3031 63.2639 36.0958 63.126 35.9227 62.9507C35.7495 62.7754 35.6142 62.5664 35.5251 62.3367C35.4359 62.107 35.3949 61.8615 35.4044 61.6153C35.449 61.1637 35.6563 60.7437 35.9876 60.4336C36.319 60.1235 36.7517 59.9445 37.2053 59.9299C37.4527 59.9265 37.6982 59.9736 37.9269 60.0682C38.1555 60.1627 38.3625 60.3028 38.5353 60.4799C38.7081 60.657 38.843 60.8674 38.9319 61.0984C39.0208 61.3293 39.0618 61.5758 39.0524 61.8231C39.0524 62.839 38.3366 63.4854 37.2515 63.4854Z" fill="#1E8386"/>
</svg>
